<svg width="25" height="25" viewBox="0 0 25 25" fill="none" xmlns="http://www.w3.org/2000/svg">
<path d="M12.6445 22.9258C18.1674 22.9258 22.6445 18.4486 22.6445 12.9258C22.6445 7.40293 18.1674 2.92578 12.6445 2.92578C7.12168 2.92578 2.64453 7.40293 2.64453 12.9258C2.64453 18.4486 7.12168 22.9258 12.6445 22.9258Z" stroke="black" stroke-width="2" stroke-linecap="round" stroke-linejoin="round"/>
<path d="M9.73462 9.92574C9.96972 9.25741 10.4338 8.69385 11.0446 8.33487C11.6554 7.9759 12.3735 7.84468 13.0718 7.96445C13.7701 8.08423 14.4034 8.44726 14.8597 8.98927C15.316 9.53127 15.5657 10.2173 15.5646 10.9257C15.5646 12.9257 12.5646 13.9257 12.5646 13.9257" stroke="black" stroke-width="2" stroke-linecap="round" stroke-linejoin="round"/>
<path d="M12.6445 17.9258H12.6545" stroke="black" stroke-width="2" stroke-linecap="round" stroke-linejoin="round"/>
</svg>
