<svg width="29" height="31" viewBox="0 0 29 31" fill="none" xmlns="http://www.w3.org/2000/svg">
<g filter="url(#filter0_d_302_2)">
<path d="M23.7939 12.2427C23.7974 13.5626 23.489 14.8646 22.8939 16.0427C22.1884 17.4544 21.1037 18.6419 19.7614 19.472C18.4191 20.3021 16.8722 20.7421 15.2939 20.7427C13.9741 20.7461 12.6721 20.4378 11.4939 19.8427L5.79395 21.7427L7.69395 16.0427C7.09888 14.8646 6.7905 13.5626 6.79395 12.2427C6.79456 10.6645 7.23456 9.11756 8.06466 7.77525C8.89477 6.43295 10.0822 5.34827 11.4939 4.6427C12.6721 4.04764 13.9741 3.73926 15.2939 3.7427H15.7939C17.8783 3.8577 19.847 4.73747 21.3231 6.21356C22.7992 7.68966 23.679 9.65836 23.7939 11.7427V12.2427Z" stroke="black" stroke-width="2" stroke-linecap="round" stroke-linejoin="round"/>
</g>
<defs>
<filter id="filter0_d_302_2" x="-1.20605" y="0.742676" width="32" height="32" filterUnits="userSpaceOnUse" color-interpolation-filters="sRGB">
<feFlood flood-opacity="0" result="BackgroundImageFix"/>
<feColorMatrix in="SourceAlpha" type="matrix" values="0 0 0 0 0 0 0 0 0 0 0 0 0 0 0 0 0 0 127 0" result="hardAlpha"/>
<feOffset dy="4"/>
<feGaussianBlur stdDeviation="2"/>
<feComposite in2="hardAlpha" operator="out"/>
<feColorMatrix type="matrix" values="0 0 0 0 0 0 0 0 0 0 0 0 0 0 0 0 0 0 0.25 0"/>
<feBlend mode="normal" in2="BackgroundImageFix" result="effect1_dropShadow_302_2"/>
<feBlend mode="normal" in="SourceGraphic" in2="effect1_dropShadow_302_2" result="shape"/>
</filter>
</defs>
</svg>
